<?xml version="1.0" encoding="UTF-8" standalone="no"?>
<svg
   xmlns:dc="http://purl.org/dc/elements/1.1/"
   xmlns:cc="http://creativecommons.org/ns#"
   xmlns:rdf="http://www.w3.org/1999/02/22-rdf-syntax-ns#"
   xmlns:svg="http://www.w3.org/2000/svg"
   xmlns="http://www.w3.org/2000/svg"
   id="svg8"
   version="1.1"
   viewBox="0 0 16 16">
  <metadata
     id="metadata14">
    <rdf:RDF>
      <cc:Work
         rdf:about="">
        <dc:format>image/svg+xml</dc:format>
        <dc:type
           rdf:resource="http://purl.org/dc/dcmitype/StillImage" />
        <dc:title></dc:title>
      </cc:Work>
    </rdf:RDF>
  </metadata>
  <defs
     id="defs12" />
  <rect
     y="0.015625017"
     x="0"
     height="16"
     width="16.015625"
     id="rect914"
     style="fill:#4397c3;fill-opacity:1;stroke:none;stroke-width:0.1;stroke-miterlimit:4;stroke-dasharray:none;stroke-opacity:1" />
  <g
     style="fill:#fff93a;fill-opacity:1"
     transform="translate(0,-0.65625)"
     id="g893">
    <path
       style="fill:#fff93a;fill-opacity:1"
       id="path2-3"
       d="M 14.487596,1.3740185 12.131817,3.2332294 11.151719,2.0337254 C 11.027411,1.8811996 10.78378,1.925414 10.720996,2.1118936 L 9.4790629,5.7726708 c -0.059363,0.174955 0.085003,0.3516383 0.2682773,0.3283342 L 13.582198,5.6136089 c 0.195252,-0.024358 0.28714,-0.2542854 0.162446,-0.4065025 L 12.764547,4.0076025 15.088153,2.1090166 C 14.900866,1.8774325 14.69476,1.6337215 14.487596,1.3740185 Z" />
    <path
       style="fill:#fff93a;fill-opacity:1;stroke:none;stroke-width:0.1;stroke-miterlimit:4;stroke-dasharray:none;stroke-opacity:1"
       d="M 0.796875,3.1289062 V 9.625 H 15.380859 V 3.1289062 h -0.935546 l -1.080078,0.96875 0.998046,0.00391 V 8.697266 H 1.7246094 V 4.1015625 H 9.6269531 L 9.9570312,3.1289062 Z"
       id="rect838" />
    <text
       xml:space="preserve"
       style="font-style:normal;font-weight:normal;font-size:40px;line-height:1.25;font-family:sans-serif;letter-spacing:-0.30000001px;word-spacing:0px;fill:#fff93a;fill-opacity:1;stroke:none"
       x="1.8375474"
       y="8.2778072"
       id="text850"><tspan
         id="tspan848"
         x="1.8375474"
         y="8.2778072"
         style="font-style:normal;font-variant:normal;font-weight:normal;font-stretch:normal;font-size:5.33333349px;font-family:Share-Bold;-inkscape-font-specification:Share-Bold;letter-spacing:-0.15000001px;fill:#fff93a;fill-opacity:1">LOR</tspan></text>
  </g>
  <path
     d="m 0.796875,9.96875 h 10 v 1 h -10 z m 0,2 h 12 v 1 h -12 z m 0,2 h 10 v 1 h -10 z"
     id="path2" />
</svg>
